<?xml version="1.0" encoding="UTF-8" standalone="no"?>
<!DOCTYPE svg PUBLIC "-//W3C//DTD SVG 1.1//EN"
 "http://www.w3.org/Graphics/SVG/1.1/DTD/svg11.dtd">
<!-- Generated by graphviz version 2.43.0 (0)
 -->
<!-- Title: PromptCascade_Flow_SVG Pages: 1 -->
<svg width="2000pt" height="55pt"
 viewBox="0.00 0.00 2000.00 55.00" xmlns="http://www.w3.org/2000/svg" xmlns:xlink="http://www.w3.org/1999/xlink">
<g id="graph0" class="graph" transform="scale(1 1) rotate(0) translate(4 51)">
<title>PromptCascade_Flow_SVG</title>
<polygon fill="white" stroke="transparent" points="-4,4 -4,-51 1996,-51 1996,4 -4,4"/>
<!-- P1 -->
<g id="node1" class="node">
<title>P1</title>
<polygon fill="#f7f7ff" stroke="#4b5563" points="121,-41.5 0,-41.5 0,-5.5 121,-5.5 121,-41.5"/>
<text text-anchor="middle" x="60.5" y="-26.9" font-family="Helvetica,Arial" font-size="12.00">User Prompt 1</text>
<text text-anchor="middle" x="60.5" y="-13.9" font-family="Helvetica,Arial" font-size="12.00">Pick Business Area</text>
</g>
<!-- L1 -->
<g id="node2" class="node">
<title>L1</title>
<polygon fill="#f7f7ff" stroke="#4b5563" points="339,-41.5 252,-41.5 252,-5.5 339,-5.5 339,-41.5"/>
<text text-anchor="middle" x="295.5" y="-26.9" font-family="Helvetica,Arial" font-size="12.00">LLM Call 1</text>
<text text-anchor="middle" x="295.5" y="-13.9" font-family="Helvetica,Arial" font-size="12.00">(gpt&#45;4.1&#45;mini)</text>
</g>
<!-- P1&#45;&gt;L1 -->
<g id="edge1" class="edge">
<title>P1&#45;&gt;L1</title>
<path fill="none" stroke="#4b5563" d="M121.2,-23.5C159.5,-23.5 208.65,-23.5 244.81,-23.5"/>
<polygon fill="#4b5563" stroke="#4b5563" points="244.87,-25.95 251.87,-23.5 244.87,-21.05 244.87,-25.95"/>
<text text-anchor="middle" x="186.5" y="-27.3" font-family="Times,serif" font-size="14.00">messages[]</text>
</g>
<!-- R1 -->
<g id="node3" class="node">
<title>R1</title>
<polygon fill="#f7f7ff" stroke="#4b5563" points="572,-41.5 468,-41.5 468,-5.5 572,-5.5 572,-41.5"/>
<text text-anchor="middle" x="520" y="-26.9" font-family="Helvetica,Arial" font-size="12.00">Response 1</text>
<text text-anchor="middle" x="520" y="-13.9" font-family="Helvetica,Arial" font-size="12.00">Industry Chosen</text>
</g>
<!-- L1&#45;&gt;R1 -->
<g id="edge2" class="edge">
<title>L1&#45;&gt;R1</title>
<path fill="none" stroke="#4b5563" d="M339.14,-23.5C373.56,-23.5 422.37,-23.5 460.45,-23.5"/>
<polygon fill="#4b5563" stroke="#4b5563" points="460.92,-25.95 467.92,-23.5 460.92,-21.05 460.92,-25.95"/>
<text text-anchor="middle" x="403.5" y="-27.3" font-family="Times,serif" font-size="14.00">completion</text>
</g>
<!-- P2 -->
<g id="node4" class="node">
<title>P2</title>
<polygon fill="#f7f7ff" stroke="#4b5563" points="823,-47 683,-47 683,0 823,0 823,-47"/>
<text text-anchor="middle" x="753" y="-33.4" font-family="Helvetica,Arial" font-size="12.00">User Prompt 2</text>
<text text-anchor="middle" x="753" y="-20.4" font-family="Helvetica,Arial" font-size="12.00">Identify Pain Point</text>
<text text-anchor="middle" x="753" y="-7.4" font-family="Helvetica,Arial" font-size="12.00">(+ Response 1 context)</text>
</g>
<!-- R1&#45;&gt;P2 -->
<g id="edge3" class="edge">
<title>R1&#45;&gt;P2</title>
<path fill="none" stroke="#4b5563" d="M572.27,-23.5C602.67,-23.5 641.78,-23.5 675.75,-23.5"/>
<polygon fill="#4b5563" stroke="#4b5563" points="675.91,-25.95 682.91,-23.5 675.91,-21.05 675.91,-25.95"/>
<text text-anchor="middle" x="627.5" y="-27.3" font-family="Times,serif" font-size="14.00">chaining</text>
</g>
<!-- L2 -->
<g id="node5" class="node">
<title>L2</title>
<polygon fill="#f7f7ff" stroke="#4b5563" points="1041,-41.5 954,-41.5 954,-5.5 1041,-5.5 1041,-41.5"/>
<text text-anchor="middle" x="997.5" y="-26.9" font-family="Helvetica,Arial" font-size="12.00">LLM Call 2</text>
<text text-anchor="middle" x="997.5" y="-13.9" font-family="Helvetica,Arial" font-size="12.00">(gpt&#45;4.1&#45;mini)</text>
</g>
<!-- P2&#45;&gt;L2 -->
<g id="edge4" class="edge">
<title>P2&#45;&gt;L2</title>
<path fill="none" stroke="#4b5563" d="M823.17,-23.5C862.51,-23.5 910.88,-23.5 946.52,-23.5"/>
<polygon fill="#4b5563" stroke="#4b5563" points="946.92,-25.95 953.92,-23.5 946.92,-21.05 946.92,-25.95"/>
<text text-anchor="middle" x="888.5" y="-27.3" font-family="Times,serif" font-size="14.00">messages[]</text>
</g>
<!-- R2 -->
<g id="node6" class="node">
<title>R2</title>
<polygon fill="#f7f7ff" stroke="#4b5563" points="1251,-41.5 1170,-41.5 1170,-5.5 1251,-5.5 1251,-41.5"/>
<text text-anchor="middle" x="1210.5" y="-26.9" font-family="Helvetica,Arial" font-size="12.00">Response 2</text>
<text text-anchor="middle" x="1210.5" y="-13.9" font-family="Helvetica,Arial" font-size="12.00">Pain Point</text>
</g>
<!-- L2&#45;&gt;R2 -->
<g id="edge5" class="edge">
<title>L2&#45;&gt;R2</title>
<path fill="none" stroke="#4b5563" d="M1041.2,-23.5C1076.42,-23.5 1126.33,-23.5 1162.65,-23.5"/>
<polygon fill="#4b5563" stroke="#4b5563" points="1162.72,-25.95 1169.72,-23.5 1162.72,-21.05 1162.72,-25.95"/>
<text text-anchor="middle" x="1105.5" y="-27.3" font-family="Times,serif" font-size="14.00">completion</text>
</g>
<!-- P3 -->
<g id="node7" class="node">
<title>P3</title>
<polygon fill="#f7f7ff" stroke="#4b5563" points="1529,-47 1362,-47 1362,0 1529,0 1529,-47"/>
<text text-anchor="middle" x="1445.5" y="-33.4" font-family="Helvetica,Arial" font-size="12.00">User Prompt 3</text>
<text text-anchor="middle" x="1445.5" y="-20.4" font-family="Helvetica,Arial" font-size="12.00">Propose Agentic AI Solution</text>
<text text-anchor="middle" x="1445.5" y="-7.4" font-family="Helvetica,Arial" font-size="12.00">(+ Response 2 context)</text>
</g>
<!-- R2&#45;&gt;P3 -->
<g id="edge6" class="edge">
<title>R2&#45;&gt;P3</title>
<path fill="none" stroke="#4b5563" d="M1251.03,-23.5C1279.39,-23.5 1318.76,-23.5 1354.59,-23.5"/>
<polygon fill="#4b5563" stroke="#4b5563" points="1354.71,-25.95 1361.71,-23.5 1354.71,-21.05 1354.71,-25.95"/>
<text text-anchor="middle" x="1306.5" y="-27.3" font-family="Times,serif" font-size="14.00">chaining</text>
</g>
<!-- L3 -->
<g id="node8" class="node">
<title>L3</title>
<polygon fill="#f7f7ff" stroke="#4b5563" points="1747,-41.5 1660,-41.5 1660,-5.5 1747,-5.5 1747,-41.5"/>
<text text-anchor="middle" x="1703.5" y="-26.9" font-family="Helvetica,Arial" font-size="12.00">LLM Call 3</text>
<text text-anchor="middle" x="1703.5" y="-13.9" font-family="Helvetica,Arial" font-size="12.00">(gpt&#45;4.1&#45;mini)</text>
</g>
<!-- P3&#45;&gt;L3 -->
<g id="edge7" class="edge">
<title>P3&#45;&gt;L3</title>
<path fill="none" stroke="#4b5563" d="M1529.26,-23.5C1569.9,-23.5 1617.53,-23.5 1652.55,-23.5"/>
<polygon fill="#4b5563" stroke="#4b5563" points="1652.82,-25.95 1659.82,-23.5 1652.82,-21.05 1652.82,-25.95"/>
<text text-anchor="middle" x="1594.5" y="-27.3" font-family="Times,serif" font-size="14.00">messages[]</text>
</g>
<!-- R3 -->
<g id="node9" class="node">
<title>R3</title>
<polygon fill="#f7f7ff" stroke="#4b5563" points="1992,-41.5 1876,-41.5 1876,-5.5 1992,-5.5 1992,-41.5"/>
<text text-anchor="middle" x="1934" y="-26.9" font-family="Helvetica,Arial" font-size="12.00">Response 3</text>
<text text-anchor="middle" x="1934" y="-13.9" font-family="Helvetica,Arial" font-size="12.00">Proposed Solution</text>
</g>
<!-- L3&#45;&gt;R3 -->
<g id="edge8" class="edge">
<title>L3&#45;&gt;R3</title>
<path fill="none" stroke="#4b5563" d="M1747.21,-23.5C1781.38,-23.5 1829.84,-23.5 1868.7,-23.5"/>
<polygon fill="#4b5563" stroke="#4b5563" points="1868.84,-25.95 1875.84,-23.5 1868.84,-21.05 1868.84,-25.95"/>
<text text-anchor="middle" x="1811.5" y="-27.3" font-family="Times,serif" font-size="14.00">completion</text>
</g>
</g>
</svg>
